<svg xmlns="http://www.w3.org/2000/svg" viewBox="0 0 91.69922 65.86019"><g id="Réteg_2" data-name="Réteg 2"><g id="Réteg_1" data-name="Réteg 1"><path d="M61.543.00219a8.87006,8.87006,0,0,0-1.625.11329,9.00223,9.00223,0,0,0-7.08985,6.0039c-.23579.70505-.44855,1.41034-.625,2.125-2.698-.24717-4.95354-.293-6.35156-.293s-3.65356.0458-6.35156.293c-.1763-.71338-.38961-1.41726-.625-2.12109A9.0022,9.0022,0,0,0,31.78516.11938a8.90183,8.90183,0,0,0-3.27735.07813C24.08774,1.13228,17.775,2.946,12.79688,6.98657q-.08047.06564-.15626.13672c-1.57114,1.46552-2.65476,3.44443-3.99218,6.23438a81.65666,81.65666,0,0,0-4,10.30077A94.321,94.321,0,0,0,0,51.47485a3.00031,3.00031,0,0,0,.38672,1.47266C5.0778,61.27156,15.26225,64.42791,21.5,65.68579a8.98977,8.98977,0,0,0,9.03906-3.56641l2.47266-3.42969a62.53214,62.53214,0,0,0,12.83984,1.28516,62.53232,62.53232,0,0,0,12.83985-1.28516l2.46875,3.42579a8.9894,8.9894,0,0,0,9.043,3.5664C76.44088,64.424,86.62142,61.26765,91.3125,52.9436a3.00028,3.00028,0,0,0,.38672-1.47266,94.32187,94.32187,0,0,0-4.64453-27.8164,81.63141,81.63141,0,0,0-4.00391-10.30078c-1.33739-2.79-2.422-4.76884-3.99219-6.23438q-.07573-.071-.15625-.13671C73.92457,2.94239,67.61384,1.12842,63.19141.1936A8.91554,8.91554,0,0,0,61.543.00219Zm-.15235,5.9961a3.17762,3.17762,0,0,1,.5586.0664c3.90806.8261,9.39571,2.58551,13.0625,5.51563a22.6128,22.6128,0,0,1,2.6289,4.36719,76.177,76.177,0,0,1,3.69532,9.52734,90.09585,90.09585,0,0,1,4.27344,25.06641c-3.31856,5.04675-11.42711,8.21593-16.59376,9.25781a2.91492,2.91492,0,0,1-2.98437-1.19141l-1.16016-1.60547c1.20076-.40749,2.33017-.83058,3.33594-1.25781a33.608,33.608,0,0,0,7.80859-4.46484,3.00081,3.00081,0,1,0-3.89453-4.56641,25.2122,25.2122,0,0,1-6.25781,3.51172,50.87962,50.87962,0,0,1-20.01172,3.75,50.87966,50.87966,0,0,1-20.01172-3.75A25.2122,25.2122,0,0,1,19.582,46.71313a3.00117,3.00117,0,1,0-3.89453,4.56641,33.608,33.608,0,0,0,7.80859,4.46484c1.00578.42723,2.13518.85032,3.33594,1.25781l-1.16015,1.60938a2.92,2.92,0,0,1-2.98829,1.19531C17.517,58.765,9.4084,55.59192,6.08984,50.54516a90.09706,90.09706,0,0,1,4.27344-25.0664,76.11665,76.11665,0,0,1,3.69922-9.52735,22.7127,22.7127,0,0,1,2.625-4.36718C20.354,8.65436,25.84354,6.89475,29.75,6.0686a2.91828,2.91828,0,0,1,3.43359,1.957c.12845.38407.22151.73957.32032,1.09766a44.718,44.718,0,0,0-14.1836,5.23438,3.0003,3.0003,0,1,0,2.88757,5.26014q.08921-.049.17493-.1039c8.71438-5.17615,19.4839-5.56249,23.46875-5.5625s14.75437.38635,23.46875,5.5625a3.0003,3.0003,0,1,0,3.23744-5.05234q-.08568-.05491-.17494-.1039a44.71847,44.71847,0,0,0-14.1875-5.23438c.099-.35908.19145-.71624.32031-1.10156A2.90177,2.90177,0,0,1,61.39062,5.99829ZM32.92188,29.93579c-3.8273.01945-6.91614,3.58108-6.89913,7.95513.01691,4.34658,3.09587,7.86539,6.89913,7.88471,3.82729-.01945,6.91613-3.58108,6.89912-7.95513C39.80409,33.47392,36.72513,29.95511,32.92188,29.93579Zm25.82031,0c-3.866,0-7,3.58172-7,8s3.134,8,7,8h0c3.866,0,7-3.58172,7-8S62.60818,29.93579,58.74219,29.93579Z"/></g></g></svg>