<?xml version="1.0" ?><svg id="Layer_1" style="enable-background:new 0 0 24 24;" version="1.1" viewBox="0 0 24 24" xml:space="preserve" xmlns="http://www.w3.org/2000/svg" xmlns:xlink="http://www.w3.org/1999/xlink"><style type="text/css">
	.st0{fill:#5BDEF4;}
	.st1{fill:#7AED8C;}
	.st2{fill:#5CC7F2;}
	.st3{fill:#FF5F5F;}
	.st4{fill:#527BFF;}
	.st5{fill:#EF7F5E;}
	.st6{fill:#37415E;}
	.st7{fill:#5CF2CA;}
	.st8{fill:#9076FF;}
	.st9{fill:url(#SVGID_1_);}
	.st10{fill:url(#SVGID_2_);}
	.st11{fill:url(#SVGID_3_);}
	.st12{fill:url(#SVGID_4_);}
	.st13{fill:url(#SVGID_5_);}
	.st14{fill:#ED5887;}
</style><path class="st6" d="M22.199,10.966c-0.465-4.777-4.268-8.627-9.042-9.154C10.204,1.49,7.361,2.395,5.162,4.365  C2.994,6.309,1.75,9.092,1.75,12c0,4.441,2.838,8.354,7.066,9.739c0.085,0.026,0.174,0.04,0.261,0.04  c0.185,0,0.366-0.058,0.516-0.168c0.214-0.158,0.337-0.402,0.337-0.67v-2.18c0-0.028-0.021-0.046-0.029-0.071  c-0.008-0.027-0.003-0.056-0.021-0.08c-0.004-0.006-0.012-0.005-0.017-0.01c-0.021-0.024-0.05-0.032-0.079-0.046  c-0.03-0.015-0.054-0.034-0.088-0.036c-0.007,0-0.01-0.007-0.017-0.007c-0.029,0-0.048,0.022-0.074,0.03  c-0.026,0.008-0.054,0.003-0.077,0.02c-0.091,0.068-0.196,0.129-0.331,0.191c-1.162,0.52-2.527-0.284-3.023-1.332l-0.032-0.066  c-0.181-0.368-0.38-0.776-0.701-1.088c0.377,0.039,0.577,0.26,0.931,0.65c0.195,0.215,0.438,0.482,0.764,0.764  c1.033,0.898,2.224,0.324,2.688,0.033c0.002-0.001,0.003-0.005,0.006-0.006c0.026-0.018,0.041-0.039,0.058-0.065  c0.019-0.028,0.03-0.057,0.038-0.091c0.002-0.012,0.013-0.018,0.013-0.031c0.04-0.339,0.228-0.665,0.501-0.869  c0.005-0.004,0.005-0.012,0.01-0.016c0.025-0.021,0.033-0.051,0.048-0.08c0.015-0.03,0.034-0.054,0.036-0.087  c0-0.007,0.007-0.01,0.007-0.017c0-0.028-0.021-0.047-0.03-0.072c-0.008-0.026-0.003-0.055-0.02-0.078  c-0.004-0.005-0.012-0.005-0.016-0.01c-0.021-0.025-0.05-0.032-0.08-0.047c-0.029-0.015-0.053-0.033-0.086-0.036  c-0.007-0.001-0.011-0.008-0.018-0.008c-2.351,0-4.156-1.618-4.391-3.937C5.771,11.065,6.077,9.985,6.782,9.14  C6.819,9.095,6.84,9.029,6.84,8.97c0-0.032-0.009-0.099-0.025-0.195C6.753,8.409,6.594,7.467,6.958,6.492  c0.35,0.021,1.251,0.159,2.153,0.982C9.115,7.478,9.12,7.476,9.124,7.479C9.168,7.516,9.221,7.54,9.28,7.54  c0.003,0,0.005-0.001,0.007-0.001c0.005,0,0.008-0.001,0.012-0.002c0.018-0.001,0.035-0.003,0.052-0.008  C10.114,7.298,10.955,7.19,12,7.19s1.886,0.108,2.647,0.339c0.017,0.005,0.036,0.007,0.054,0.008c0.004,0,0.008,0.002,0.012,0.002  c0.002,0,0.005,0.001,0.007,0.001c0.059,0,0.112-0.024,0.156-0.061c0.004-0.003,0.009-0.001,0.012-0.005  c0.902-0.823,1.805-0.961,2.153-0.982c0.364,0.975,0.205,1.917,0.144,2.283C17.169,8.871,17.16,8.938,17.16,8.97v0.01  c0,0.059,0.021,0.115,0.058,0.16c0.705,0.845,1.011,1.925,0.883,3.125c-0.234,2.317-2.04,3.936-4.391,3.936  c-0.007,0-0.01,0.007-0.017,0.007c-0.033,0.002-0.056,0.021-0.086,0.036c-0.03,0.015-0.059,0.023-0.081,0.047  c-0.004,0.005-0.012,0.004-0.016,0.009c-0.017,0.023-0.011,0.051-0.02,0.076c-0.009,0.026-0.031,0.046-0.031,0.075  c0,0.007,0.007,0.011,0.007,0.017c0.002,0.032,0.021,0.055,0.035,0.084c0.015,0.03,0.023,0.061,0.049,0.083  c0.005,0.004,0.004,0.011,0.009,0.015c0.319,0.242,0.511,0.627,0.511,1.031v3.26c0,0.268,0.123,0.512,0.337,0.67  c0.22,0.162,0.512,0.21,0.78,0.127C19.794,20.238,22.677,15.809,22.199,10.966z M15.037,21.261  c-0.117,0.034-0.238,0.017-0.333-0.053c-0.05-0.037-0.134-0.121-0.134-0.269v-3.26c0-0.372-0.126-0.727-0.335-1.026  c2.353-0.227,4.12-1.936,4.364-4.338c0.135-1.275-0.198-2.476-0.929-3.402c0.003-0.019,0.004-0.03,0.009-0.056  c0.071-0.425,0.262-1.554-0.239-2.717c-0.037-0.086-0.118-0.144-0.211-0.151c-0.055-0.004-1.29-0.07-2.567,1.026  C13.886,6.797,13.038,6.69,12,6.69s-1.886,0.107-2.661,0.327c-1.276-1.097-2.508-1.03-2.567-1.026  C6.679,5.998,6.598,6.056,6.561,6.142C6.06,7.305,6.25,8.434,6.321,8.858C6.326,8.885,6.327,8.898,6.33,8.918  c-0.73,0.926-1.064,2.124-0.929,3.398c0.244,2.403,2.009,4.111,4.362,4.339c-0.139,0.199-0.236,0.428-0.287,0.681  c-0.475,0.276-1.297,0.586-2.013-0.034c-0.303-0.262-0.524-0.507-0.72-0.722c-0.455-0.502-0.82-0.902-1.664-0.808  c-0.159,0.013-0.29,0.122-0.332,0.278c-0.043,0.158,0.016,0.321,0.154,0.418c0.373,0.249,0.586,0.684,0.792,1.105l0.031,0.064  c0.471,0.993,1.554,1.78,2.693,1.78c0.329,0,0.662-0.065,0.986-0.209c0.01-0.005,0.015-0.01,0.025-0.015v1.748  c0,0.147-0.084,0.231-0.134,0.269c-0.094,0.069-0.217,0.089-0.328,0.054C4.949,19.946,2.25,16.224,2.25,12  c0-2.767,1.184-5.414,3.246-7.263c2.09-1.874,4.787-2.736,7.606-2.428c4.541,0.501,8.157,4.162,8.599,8.706  C22.156,15.622,19.414,19.836,15.037,21.261z"/></svg>