<svg id="Layer_m" data-name="Layer_m" xmlns="http://www.w3.org/2000/svg" viewBox="0 0 92 93.3125"><path d="M50,4C24.69531,4,4,23.19531,4,47c0,13.01563,6.26563,24.57032,16,32.4375v17.875L22.9375,95.75l14.4375-7.5A48.62308,48.62308,0,0,0,50,90c25.30469,0,46-19.19531,46-43S75.30469,4,50,4Zm0,4C73.28906,8,92,25.51562,92,47S73.28906,86,50,86a45.12994,45.12994,0,0,1-12.4375-1.75l-.75-.1875-.6875.375L24,90.75V77.625l-.75-.5625C13.92188,69.88281,8,59.07812,8,47,8,25.51562,26.71094,8,50,8Zm-4.5625,27.4375-24.0625,25.5L43,48.81249l11.5625,12.375,23.75-25.75L57.25,47.25Z" transform="translate(-4 -3.99999)"/></svg>